<svg id="Layer_1" data-name="Layer 1" xmlns="http://www.w3.org/2000/svg" viewBox="0 0 100 100"><title>-</title><path d="M48.95,89h-1.9V86.65h1.9Zm0-4.69h-1.9V82h1.9Zm0-4.69h-1.9V77.27h1.9Zm0-4.69h-1.9V72.57h1.9Zm0-4.69h-1.9V67.88h1.9Z"/><rect x="28.95" y="88.65" width="38.1" height="1.9"/><rect x="27.45" y="87.15" width="41.1" height="4.9"/><path d="M48,67A28.55,28.55,0,1,1,76.55,38.45,28.58,28.58,0,0,1,48,67Zm0-54.38A25.84,25.84,0,1,0,73.84,38.45,25.86,25.86,0,0,0,48,12.62Z"/><path d="M48,68.5a30,30,0,1,1,30-30A30.08,30.08,0,0,1,48,68.5Zm0-54.38A24.34,24.34,0,1,0,72.34,38.46,24.36,24.36,0,0,0,48,14.12Z"/><path d="M52,24c7.51,0,9.59,4.68,9.59,11.69V51.6h-9.1l.05-15.36c0-3.3-.31-5.09-3.85-5.09H46.27V51.6H34.08V44.43h4.47V31.23H35.7V24Z"/></svg>