<svg id="Layer_1" data-name="Layer 1" xmlns="http://www.w3.org/2000/svg" viewBox="0 0 100 100"><title>-</title><rect x="47.05" y="72.57" width="1.9" height="2.35"/><rect x="47.05" y="77.27" width="1.9" height="2.35"/><rect x="47.05" y="81.96" width="1.9" height="2.35"/><rect x="47.05" y="67.88" width="1.9" height="2.35"/><polygon points="48.95 87.15 48.95 86.65 47.05 86.65 47.05 87.15 27.45 87.15 27.45 92.05 68.55 92.05 68.55 87.15 48.95 87.15"/><path d="M48,8.41a30,30,0,1,0,30,30A30.08,30.08,0,0,0,48,8.41Zm0,54.38A24.34,24.34,0,1,1,72.34,38.46,24.36,24.36,0,0,1,48,62.79Z"/><path d="M53,24c7.51,0,9.59,4.68,9.59,11.69V51.6h-9.1l.05-15.36c0-3.3-.31-5.09-3.85-5.09H47.27V51.6H35.08V44.43h4.47V31.23H36.7V24Z"/></svg>