<svg id="Layer_1" data-name="Layer 1" xmlns="http://www.w3.org/2000/svg" viewBox="0 0 100 100"><defs><style>.cls-1{fill:#ccc;}</style></defs><title>-</title><path class="cls-1" d="M50,71.35C41,71.35,17.7,63,15.08,62a4.19,4.19,0,1,1,2.87-7.88C24.69,56.59,43.59,63,50,63s25.31-6.37,32.05-8.83A4.19,4.19,0,1,1,84.92,62C82.3,63,59,71.35,50,71.35Z"/><path class="cls-1" d="M50.26,28.65c4.15,0,10,4.25,10,11.17,0,8.12-7.48,12.73-14.4,14.58l-1.11-3.14c5.17-2.12,7.94-4.71,7.94-8.58,0-3.23-2.58-5.81-6.46-6.64-.46-.09-1.29-1.11-1.29-2.86,0-2.77,2.58-4.52,5.26-4.52Z"/></svg>