<svg id="Layer_1" data-name="Layer 1" xmlns="http://www.w3.org/2000/svg" viewBox="0 0 100 100"><title>-</title><rect x="49.05" y="77.27" width="1.9" height="2.35"/><rect x="49.05" y="72.57" width="1.9" height="2.35"/><rect x="49.05" y="81.96" width="1.9" height="2.35"/><rect x="49.05" y="67.88" width="1.9" height="2.35"/><polygon points="50.95 87.15 50.95 86.65 49.05 86.65 49.05 87.15 29.45 87.15 29.45 92.05 70.55 92.05 70.55 87.15 50.95 87.15"/><path d="M50,8.41a30,30,0,1,0,30,30A30.08,30.08,0,0,0,50,8.41Zm0,54.38A24.34,24.34,0,1,1,74.34,38.46,24.36,24.36,0,0,1,50,62.79Z"/><path d="M64.47,23V37.32C64.47,48,60.81,50.6,52.6,50.6H50.91V43.67h.42c3.79,0,3.9-1.51,3.9-6.16V30.23h-17V23ZM38.54,34.67h8.63V57.36H38.54Z"/></svg>