<svg id="Layer_1" data-name="Layer 1" xmlns="http://www.w3.org/2000/svg" viewBox="0 0 100 100"><title>-</title><path d="M50.95,89h-1.9V86.65h1.9Zm0-4.69h-1.9V82h1.9Zm0-4.69h-1.9V77.27h1.9Zm0-4.69h-1.9V72.57h1.9Zm0-4.69h-1.9V67.88h1.9Z"/><rect x="30.95" y="88.65" width="38.1" height="1.9"/><rect x="29.45" y="87.15" width="41.1" height="4.9"/><path d="M50,67A28.55,28.55,0,1,1,78.55,38.45,28.58,28.58,0,0,1,50,67Zm0-54.38A25.84,25.84,0,1,0,75.84,38.45,25.86,25.86,0,0,0,50,12.62Z"/><path d="M50,68.5a30,30,0,1,1,30-30A30.08,30.08,0,0,1,50,68.5Zm0-54.38A24.34,24.34,0,1,0,74.34,38.46,24.36,24.36,0,0,0,50,14.12Z"/><path d="M64.47,23V37.32C64.47,48,60.81,50.6,52.6,50.6H50.91V43.67h.42c3.79,0,3.9-1.51,3.9-6.16V30.23h-17V23ZM38.54,34.67h8.63V57.36H38.54Z"/></svg>