<svg id="Layer_1" data-name="Layer 1" xmlns="http://www.w3.org/2000/svg" viewBox="0 0 100 100"><title>-</title><path d="M51.45,88.5h-1.9V86.15h1.9Zm0-4.69h-1.9V81.46h1.9Zm0-4.69h-1.9V76.77h1.9Zm0-4.69h-1.9V72.07h1.9Zm0-4.69h-1.9V67.38h1.9Z"/><rect x="31.45" y="88.15" width="38.1" height="1.9"/><rect x="29.95" y="86.65" width="41.1" height="4.9"/><path d="M50.5,66.5A28.55,28.55,0,1,1,79,38,28.58,28.58,0,0,1,50.5,66.5Zm0-54.38A25.84,25.84,0,1,0,76.34,38,25.86,25.86,0,0,0,50.5,12.12Z"/><path d="M50.5,68a30,30,0,1,1,30-30A30.08,30.08,0,0,1,50.5,68Zm0-54.38A24.34,24.34,0,1,0,74.84,38,24.36,24.36,0,0,0,50.5,13.62Z"/><path d="M45.62,42.93c1.87,0,2.34-.6,2.34-2.88V29.73H44.19v-7.2h13.1V42.18c0,5.9-2.49,7.93-7.2,7.93H41.93V42.93Z"/></svg>