<svg id="Layer_1" data-name="Layer 1" xmlns="http://www.w3.org/2000/svg" viewBox="0 0 100 100"><title>-</title><path d="M50.35,65.11c-5.59-2-14.63-8.25-14.63-15.58,0-4.42,2.86-8.48,11.31-14.07,5.83-3.72,12.73-7.91,12.73-11.39,0-3.25-2.14-5.23-6.31-5.23-8,0-13.57,7.67-15.35,7.67-2.38,0-6.31-3.25-6.31-7,0-2.1.95-3.14,2.61-4.77A23,23,0,0,1,47,10h.24c10.35,0,20.95,9.54,20.95,20.12,0,4.42-1.31,7.79-6.67,11.51-4,2.9-13,7.79-13,12.67,0,2.68,1.3,4.89,4.28,8ZM48.33,90c-4.64,0-8.09-3.26-8.09-8.26a8.21,8.21,0,1,1,16.43,0A7.91,7.91,0,0,1,48.45,90Z"/></svg>