<svg id="Layer_1" data-name="Layer 1" xmlns="http://www.w3.org/2000/svg" viewBox="0 0 100 100"><title>-</title><path d="M47.95,89h-1.9V86.65h1.9Zm0-4.69h-1.9V82h1.9Zm0-4.69h-1.9V77.27h1.9Zm0-4.69h-1.9V72.57h1.9Zm0-4.69h-1.9V67.88h1.9Z"/><rect x="27.95" y="88.65" width="38.1" height="1.9"/><rect x="26.45" y="87.15" width="41.1" height="4.9"/><path d="M47,67A28.55,28.55,0,1,1,75.55,38.45,28.58,28.58,0,0,1,47,67Zm0-54.38A25.84,25.84,0,1,0,72.84,38.45,25.86,25.86,0,0,0,47,12.62Z"/><path d="M47,68.5a30,30,0,1,1,30-30A30.08,30.08,0,0,1,47,68.5Zm0-54.38A24.34,24.34,0,1,0,71.34,38.46,24.36,24.36,0,0,0,47,14.12Z"/><path d="M65.32,26V39.7c0,9.54-4.7,13.9-13.41,13.9H33.48L30.94,26h8.81l1.87,20.58h7.74c4.47,0,7.46-.36,7.46-6.37V26ZM52.87,42.12H44.81V26h8.06Z"/></svg>