<svg id="Layer_1" data-name="Layer 1" xmlns="http://www.w3.org/2000/svg" viewBox="0 0 100 100"><title>-</title><rect x="46.05" y="67.88" width="1.9" height="2.35"/><rect x="46.05" y="72.57" width="1.9" height="2.35"/><rect x="46.05" y="81.96" width="1.9" height="2.35"/><rect x="46.05" y="77.27" width="1.9" height="2.35"/><polygon points="47.95 87.15 47.95 86.65 46.05 86.65 46.05 87.15 26.45 87.15 26.45 92.05 67.55 92.05 67.55 87.15 47.95 87.15"/><path d="M47,8.41a30,30,0,1,0,30,30A30.08,30.08,0,0,0,47,8.41Zm0,54.38A24.34,24.34,0,1,1,71.34,38.46,24.36,24.36,0,0,1,47,62.79Z"/><path d="M64.32,26V39.7c0,9.54-4.7,13.9-13.41,13.9H32.48L29.94,26h8.81l1.87,20.58h7.74c4.47,0,7.46-.36,7.46-6.37V26ZM51.87,42.12H43.81V26h8.06Z"/></svg>