<svg id="Layer_1" data-name="Layer 1" xmlns="http://www.w3.org/2000/svg" viewBox="0 0 100 100"><title>-</title><path d="M33.14,94C26,94,16.68,92.32,16.68,80.38c0-6.51.71-13.61.71-20.13,0-3.26-.4-8-9.39-8.58V48.42c9.08-.69,9.39-5.23,9.39-8.69,0-6.71-.71-13.81-.71-19.82C16.68,7.88,26,6,33.14,6V9.56c-7.77.79-9,5.22-9,9.47,0,6.12,1.31,13.32,1.31,19.14,0,5.52-2.32,10.36-9,11.64v.39c6.56,1.28,9,6.22,9,11.64,0,6-1.31,13.12-1.31,18.94,0,4.73,1.11,8.88,9,9.76Z"/><path d="M35.14,96h-2c-12.25,0-18.46-5.25-18.46-15.61,0-3.31.18-6.79.36-10.17s.35-6.75.35-10c0-2.71,0-6.09-7.52-6.59L6,53.55v-7l1.85-.14c7.54-.57,7.54-3.68,7.54-6.69,0-3.39-.19-6.92-.37-10.34s-.34-6.51-.34-9.48C14.68,12.66,17.88,4,33.14,4h2v7.36l-1.8.18c-6,.61-7.19,3.31-7.19,7.48,0,3,.33,6.36.66,9.61s.65,6.56.65,9.53c0,5.5-2,9.57-5.87,11.86,3.78,2.32,5.87,6.43,5.87,11.81,0,3.13-.34,6.53-.67,9.82s-.64,6.33-.64,9.12c0,3.95.53,7,7.21,7.78l1.78.2ZM16,52.15c3.34,2.54,3.34,6.31,3.34,8.11,0,3.31-.18,6.79-.36,10.17s-.35,6.75-.35,10c0,6.91,3.3,10.53,10.6,11.4-6.23-2-7.12-6.81-7.12-11,0-3,.33-6.31.66-9.52s.65-6.49.65-9.42c0-3.76-1.28-8.49-7.37-9.68ZM11,50a14,14,0,0,1,3.5,1.15V48.92A14.67,14.67,0,0,1,11,50ZM29.64,8.19c-7.46.84-11,4.63-11,11.73,0,2.87.16,6,.34,9.27.18,3.47.37,7.05.37,10.55,0,2.08,0,5.61-3.1,8.06,4.76-1,7.17-4.23,7.17-9.64,0-2.78-.31-5.87-.63-9.14s-.68-6.8-.68-10C22.15,16.75,22.15,10.37,29.64,8.19Z"/><path d="M92,51.67c-9.09.69-9.39,5.33-9.39,9.38,0,5.82.6,12.92.6,19.63C83.21,92.12,74.13,94,66.76,94V90.64c7.67-1,9.08-5.13,9.08-9.77,0-5.62-1.31-12-1.31-18.74,0-5.72,2.42-10.56,9.08-11.94V49.8c-6.66-1.28-9.08-6.12-9.08-11.64,0-6.61,1.31-13.22,1.31-19.33,0-4.35-1.41-8.49-9.08-9.38V6c7.37,0,16.45,1.58,16.45,13.52,0,6.71-.6,13.61-.6,19.53,0,3.95.1,8.78,9.39,9.38Z"/><path d="M66.76,96h-2V88.88l1.75-.22c6.11-.79,7.34-3.56,7.34-7.79a82.46,82.46,0,0,0-.6-8.34,99,99,0,0,1-.71-10.4c0-5.6,2.09-9.76,6-12.11-3.86-2.31-6-6.43-6-11.86a101.74,101.74,0,0,1,.69-10.24c.32-3.19.63-6.19.63-9.09,0-3.93-1.24-6.69-7.32-7.39l-1.77-.21V4h2C79,4,85.21,9.22,85.21,19.52c0,3.5-.16,7-.32,10.46-.15,3.21-.29,6.25-.29,9.06,0,3.7,0,6.9,7.52,7.38l1.87.12v7l-1.85.14c-7.54.57-7.54,3.73-7.54,7.38,0,2.76.14,5.81.28,9,.16,3.48.32,7.08.32,10.6C85.21,87.67,82,96,66.76,96ZM84,52.17c-4.94,1-7.44,4.4-7.44,10a96,96,0,0,0,.69,10,85.4,85.4,0,0,1,.62,8.76c0,3.77-.81,8.7-7,10.88,7-.93,10.35-4.51,10.35-11.07,0-3.43-.16-7-.32-10.41-.15-3.27-.29-6.37-.29-9.22C80.61,58.59,80.61,54.72,84,52.17ZM85.62,49v2.18A14.31,14.31,0,0,1,89,50.06,14,14,0,0,1,85.62,49ZM70.53,8.19c4.91,1.54,7.31,5,7.31,10.64,0,3.1-.33,6.35-.65,9.49s-.67,6.57-.67,9.84c0,5.35,2.41,8.59,7.16,9.61-3.08-2.54-3.08-6.31-3.08-8.73,0-2.91.14-6,.29-9.25s.31-6.87.31-10.28C81.21,12.53,78,9,70.53,8.19Z"/></svg>