<svg id="Layer_1" data-name="Layer 1" xmlns="http://www.w3.org/2000/svg" viewBox="0 0 100 100"><defs><style>.cls-1{fill:#ccc;}</style></defs><title>-</title><path class="cls-1" d="M14.68,19.91c0,3,.17,6.14.34,9.48s.37,6.95.37,10.34c0,3,0,6.12-7.54,6.69L6,46.57v7l1.87.12c7.52.5,7.52,3.87,7.52,6.59,0,3.2-.18,6.64-.35,10s-.36,6.86-.36,10.17C14.68,90.74,20.89,96,33.14,96h2V88.75l-1.78-.2c-6.68-.75-7.21-3.83-7.21-7.78,0-2.79.31-5.86.64-9.12s.67-6.69.67-9.82c0-5.39-2.09-9.49-5.87-11.81,3.82-2.29,5.87-6.36,5.87-11.86,0-3-.33-6.31-.65-9.53S26.15,22,26.15,19c0-4.17,1.2-6.87,7.19-7.48l1.8-.18V4h-2C17.88,4,14.68,12.66,14.68,19.91Z"/><path class="cls-1" d="M92.13,46.43c-7.52-.48-7.52-3.68-7.52-7.38,0-2.82.14-5.85.29-9.06.16-3.42.32-7,.32-10.46C85.21,9.22,79,4,66.76,4h-2v7.23l1.77.21c6.07.7,7.32,3.46,7.32,7.39,0,2.9-.3,5.9-.63,9.09a101.74,101.74,0,0,0-.69,10.24c0,5.42,2.13,9.54,6,11.86-3.9,2.35-6,6.52-6,12.11a99,99,0,0,0,.71,10.4,82.46,82.46,0,0,1,.6,8.34c0,4.22-1.23,7-7.34,7.79l-1.75.22V96h2C82,96,85.21,87.67,85.21,80.68c0-3.52-.16-7.12-.32-10.6-.15-3.23-.28-6.27-.28-9,0-3.65,0-6.81,7.54-7.38L94,53.53v-7Z"/></svg>