<svg id="Layer_1" data-name="Layer 1" xmlns="http://www.w3.org/2000/svg" viewBox="0 0 100 100"><title>-</title><path d="M94,50l-.26.2a4.37,4.37,0,0,1-4.51.13,6.91,6.91,0,0,1-1.23-1,17.18,17.18,0,0,0-2.29-2.07,6.92,6.92,0,0,0-7.3-.22,9.58,9.58,0,0,0-1.73,1.39,15.41,15.41,0,0,1-1.92,1.77,4.38,4.38,0,0,1-4.51.13,6.9,6.9,0,0,1-1.23-1,17.19,17.19,0,0,0-2.29-2.07,6.91,6.91,0,0,0-7.3-.22,9.58,9.58,0,0,0-1.73,1.39,15.41,15.41,0,0,1-1.92,1.77,4.37,4.37,0,0,1-4.51.13,6.9,6.9,0,0,1-1.23-1,17.19,17.19,0,0,0-2.29-2.07,6.91,6.91,0,0,0-7.3-.22,9.57,9.57,0,0,0-1.73,1.39,15.42,15.42,0,0,1-1.92,1.77,4.37,4.37,0,0,1-4.51.13,6.91,6.91,0,0,1-1.23-1,17.19,17.19,0,0,0-2.29-2.07,6.91,6.91,0,0,0-7.3-.22,9.57,9.57,0,0,0-1.73,1.39,15.41,15.41,0,0,1-1.92,1.77,3.9,3.9,0,0,1-2.36.69,3.94,3.94,0,0,1-2.15-.56,6.91,6.91,0,0,1-1.23-1,17.19,17.19,0,0,0-2.29-2.07A6.52,6.52,0,0,0,6,46.12v3a3.94,3.94,0,0,1,2.15.56,6.91,6.91,0,0,1,1.23,1,17.18,17.18,0,0,0,2.29,2.07,6.52,6.52,0,0,0,3.82,1.15A6.53,6.53,0,0,0,19,52.94a9.58,9.58,0,0,0,1.73-1.39,15.39,15.39,0,0,1,1.92-1.77A3.9,3.9,0,0,1,25,49.09a3.93,3.93,0,0,1,2.15.56,6.9,6.9,0,0,1,1.23,1,17.19,17.19,0,0,0,2.29,2.07,6.91,6.91,0,0,0,7.3.22,9.58,9.58,0,0,0,1.73-1.39,15.41,15.41,0,0,1,1.92-1.77,4.37,4.37,0,0,1,4.51-.13,6.9,6.9,0,0,1,1.23,1,17.19,17.19,0,0,0,2.29,2.07,6.91,6.91,0,0,0,7.3.22,9.57,9.57,0,0,0,1.73-1.39,15.41,15.41,0,0,1,1.92-1.77,4.37,4.37,0,0,1,4.51-.13,6.9,6.9,0,0,1,1.23,1,17.19,17.19,0,0,0,2.29,2.07,6.92,6.92,0,0,0,7.3.22,9.58,9.58,0,0,0,1.73-1.39,15.42,15.42,0,0,1,1.92-1.77A4.37,4.37,0,0,1,84,49.65a6.91,6.91,0,0,1,1.23,1,17.18,17.18,0,0,0,2.29,2.07,6.52,6.52,0,0,0,3.82,1.15A6.69,6.69,0,0,0,94,53.37Z"/><path d="M72.33,56.38a9,9,0,0,1-5.18-1.6A15,15,0,0,1,65,52.86l-.41-.41a4.68,4.68,0,0,0-.79-.66,1.44,1.44,0,0,0-.87-.2,1.4,1.4,0,0,0-1,.27,9.6,9.6,0,0,0-1.11,1l-.44.44a12.11,12.11,0,0,1-2.19,1.75,9.42,9.42,0,0,1-4.79,1.3,9.11,9.11,0,0,1-5.24-1.6A15.08,15.08,0,0,1,46,52.86l-.41-.41a4.68,4.68,0,0,0-.79-.66,1.44,1.44,0,0,0-.87-.2,1.4,1.4,0,0,0-1,.27,9.55,9.55,0,0,0-1.1,1l-.45.45a12.11,12.11,0,0,1-2.19,1.75,9.34,9.34,0,0,1-4.79,1.3,9.1,9.1,0,0,1-5.24-1.6A15.08,15.08,0,0,1,27,52.86l-.41-.41a4.74,4.74,0,0,0-.79-.66,1.44,1.44,0,0,0-.87-.2,1.4,1.4,0,0,0-1,.27,9.55,9.55,0,0,0-1.1,1l-.45.45a12,12,0,0,1-2.19,1.75,9.07,9.07,0,0,1-4.75,1.3h-.1a9,9,0,0,1-5.18-1.6A15.05,15.05,0,0,1,8,52.85l-.4-.4a4.64,4.64,0,0,0-.78-.66,1.44,1.44,0,0,0-.87-.2H3.5V43.63H6a9.17,9.17,0,0,1,5.26,1.6,14.93,14.93,0,0,1,2.19,1.92l.41.41a4.65,4.65,0,0,0,.79.66,1.43,1.43,0,0,0,.87.2,1.4,1.4,0,0,0,1-.27,9.69,9.69,0,0,0,1.1-1l.45-.45a12,12,0,0,1,2.19-1.75A9.47,9.47,0,0,1,25,43.62a9.35,9.35,0,0,1,5.24,1.6,15.07,15.07,0,0,1,2.19,1.92l.41.41a4.66,4.66,0,0,0,.78.66,1.43,1.43,0,0,0,.87.2,1.39,1.39,0,0,0,1-.27,9.54,9.54,0,0,0,1.11-1l.44-.44a12,12,0,0,1,2.19-1.75,9.07,9.07,0,0,1,4.75-1.3H44a9,9,0,0,1,5.18,1.6,15,15,0,0,1,2.19,1.92l.41.41a4.65,4.65,0,0,0,.79.66,1.43,1.43,0,0,0,.87.2,1.39,1.39,0,0,0,1-.27,9.54,9.54,0,0,0,1.11-1l.44-.44a12,12,0,0,1,2.19-1.75,9.07,9.07,0,0,1,4.75-1.3H63a9,9,0,0,1,5.18,1.6,15,15,0,0,1,2.19,1.92l.41.41a4.66,4.66,0,0,0,.78.66,1.44,1.44,0,0,0,.87.2,1.4,1.4,0,0,0,1-.27,9.59,9.59,0,0,0,1.11-1l.45-.45a12,12,0,0,1,2.19-1.75,9.07,9.07,0,0,1,4.75-1.3H82a9,9,0,0,1,5.18,1.6,14.93,14.93,0,0,1,2.19,1.92l.41.41a4.65,4.65,0,0,0,.79.66,1.44,1.44,0,0,0,.87.2,1.4,1.4,0,0,0,1-.27l.11-.09,4-3.18V55L95,55.68a9.2,9.2,0,0,1-3.55.7h-.1a9,9,0,0,1-5.18-1.6,15.05,15.05,0,0,1-2.2-1.93l-.4-.4a4.74,4.74,0,0,0-.79-.66,1.44,1.44,0,0,0-.87-.2,1.4,1.4,0,0,0-1,.27,9.53,9.53,0,0,0-1.1,1l-.45.45a12,12,0,0,1-2.19,1.75,9.33,9.33,0,0,1-4.79,1.3ZM94,50l1.55,2Z"/></svg>