<svg id="Layer_1" data-name="Layer 1" xmlns="http://www.w3.org/2000/svg" viewBox="0 0 100 100"><defs><style>.cls-1{fill:#53b8db;}</style></defs><title>-</title><path class="cls-1" d="M92.45,48.05l-.11.09a1.4,1.4,0,0,1-1,.27,1.44,1.44,0,0,1-.87-.2,4.65,4.65,0,0,1-.79-.66l-.41-.41a14.93,14.93,0,0,0-2.19-1.92A9,9,0,0,0,82,43.62h-.1a9.07,9.07,0,0,0-4.75,1.3,12,12,0,0,0-2.19,1.75l-.45.45a9.59,9.59,0,0,1-1.11,1,1.4,1.4,0,0,1-1,.27,1.44,1.44,0,0,1-.87-.2,4.66,4.66,0,0,1-.78-.66l-.41-.41a15,15,0,0,0-2.19-1.92A9,9,0,0,0,63,43.62h-.1a9.07,9.07,0,0,0-4.75,1.3,12,12,0,0,0-2.19,1.75l-.44.44a9.54,9.54,0,0,1-1.11,1,1.39,1.39,0,0,1-1,.27,1.43,1.43,0,0,1-.87-.2,4.65,4.65,0,0,1-.79-.66l-.41-.41a15,15,0,0,0-2.19-1.92A9,9,0,0,0,44,43.62h-.1a9.07,9.07,0,0,0-4.75,1.3A12,12,0,0,0,37,46.67l-.44.44a9.54,9.54,0,0,1-1.11,1,1.39,1.39,0,0,1-1,.27,1.43,1.43,0,0,1-.87-.2,4.66,4.66,0,0,1-.78-.66l-.41-.41a15.07,15.07,0,0,0-2.19-1.92A9.35,9.35,0,0,0,25,43.62a9.47,9.47,0,0,0-4.79,1.3A12,12,0,0,0,18,46.67l-.45.45a9.69,9.69,0,0,1-1.1,1,1.4,1.4,0,0,1-1,.27,1.43,1.43,0,0,1-.87-.2,4.65,4.65,0,0,1-.79-.66l-.41-.41a14.93,14.93,0,0,0-2.19-1.92A9.17,9.17,0,0,0,6,43.62H3.5v7.94H6a1.44,1.44,0,0,1,.87.2,4.64,4.64,0,0,1,.78.66l.4.4a15.05,15.05,0,0,0,2.2,1.93,9,9,0,0,0,5.18,1.6h.1a9.07,9.07,0,0,0,4.75-1.3,12,12,0,0,0,2.19-1.75l.45-.45a9.55,9.55,0,0,1,1.1-1,1.4,1.4,0,0,1,1-.27,1.44,1.44,0,0,1,.87.2,4.74,4.74,0,0,1,.79.66l.41.41a15.08,15.08,0,0,0,2.19,1.92,9.1,9.1,0,0,0,5.24,1.6,9.34,9.34,0,0,0,4.79-1.3,12.11,12.11,0,0,0,2.19-1.75l.45-.45a9.55,9.55,0,0,1,1.1-1,1.4,1.4,0,0,1,1-.27,1.44,1.44,0,0,1,.87.2,4.68,4.68,0,0,1,.79.66l.41.41a15.08,15.08,0,0,0,2.19,1.92,9.11,9.11,0,0,0,5.24,1.6,9.42,9.42,0,0,0,4.79-1.3,12.11,12.11,0,0,0,2.19-1.75l.44-.44a9.6,9.6,0,0,1,1.11-1,1.4,1.4,0,0,1,1-.27,1.44,1.44,0,0,1,.87.2,4.68,4.68,0,0,1,.79.66l.41.41a15,15,0,0,0,2.19,1.92,9,9,0,0,0,5.18,1.6h.06a9.33,9.33,0,0,0,4.79-1.3,12,12,0,0,0,2.19-1.75l.45-.45a9.53,9.53,0,0,1,1.1-1,1.4,1.4,0,0,1,1-.27,1.44,1.44,0,0,1,.87.2,4.74,4.74,0,0,1,.79.66l.4.4a15.05,15.05,0,0,0,2.2,1.93,9,9,0,0,0,5.18,1.6h.1a9.2,9.2,0,0,0,3.55-.7L96.5,55V44.87Z"/></svg>