<svg id="Layer_1" data-name="Layer 1" xmlns="http://www.w3.org/2000/svg" viewBox="0 0 100 100"><title>-</title><path d="M4.14,29.62H31.36v4.25h-11V70.44H15.13l-.07-36.57H4.14Z"/><path d="M60.36,45.53c.06,3.13.06,6.55,0,9.07C59.92,65.65,54.68,70.66,45,70.66s-14.92-5-15.36-16.07c-.06-2.52-.06-5.94,0-9.07C30,34.92,35.39,29.34,45.06,29.34S60,34.92,60.36,45.53Zm-5.43-1.25C54.49,37.16,51.42,33.1,45,33.1s-9.49,4.05-9.93,11.18c-.19,3.26-.13,7.79,0,11.31C35.32,62.84,38.58,67,45,67s9.68-4.12,9.93-11.37C55.06,52.08,55.12,47.54,54.93,44.28Z"/><path d="M87.24,41.28H82c0-4.73-2.43-8.53-7.73-8.53-4,0-7.32,2.56-7.32,6s2.24,5.3,8.94,8.43C82.06,50,87.18,53.51,87.18,60.57c0,6.55-6,10.38-13,10.38-6.68,0-13.22-3.45-13-12h5.43c0,5.69,4,8,7.57,8,4.92,0,7.6-2.52,7.6-6.93,0-4.57-3.48-6.93-8.37-9.13-8-3.67-11.66-6.8-11.66-12.11C61.72,33,67,29,74.27,29,82.86,29,87.37,33.68,87.24,41.28Z"/><path d="M91.48,32h4.38v4.19l-4.7,10H88.92Z"/></svg>